<svg version="1.2" xmlns="http://www.w3.org/2000/svg" viewBox="0 0 4000 4000" width="4000" height="4000">
	<title>cosmonaut-svg</title>
	<defs>
		<linearGradient id="g1" x2="1" gradientUnits="userSpaceOnUse" gradientTransform="matrix(121.021,-556.248,335.463,72.986,1137.408,3500.84)">
			<stop offset="0" stop-color="#eb201a"/>
			<stop offset=".997" stop-color="#ef7d30"/>
		</linearGradient>
		<linearGradient id="g2" x2="1" gradientUnits="userSpaceOnUse" gradientTransform="matrix(130.88,-597.818,361.961,79.244,1420.998,3513.893)">
			<stop offset="0" stop-color="#eb201a"/>
			<stop offset=".997" stop-color="#ef7d30"/>
		</linearGradient>
	</defs>
	<style>
		.s0 { fill: #371a45 } 
		.s1 { fill: url(#g1) } 
		.s2 { fill: #ffcf02 } 
		.s3 { fill: url(#g2) } 
		.s4 { fill: #ffffff } 
		.s5 { fill: #22a7f0 } 
		.s6 { fill: #982e20 } 
		.s7 { fill: #220f2d } 
		.s8 { fill: none;stroke: #371a45;stroke-linecap: round;stroke-linejoin: round;stroke-width: 31.3 } 
	</style>
	<g id="_Artboards_">
	</g>
	<g id="Layer 1">
		<g id="&lt;Group&gt;">
			<g id="&lt;Group&gt;">
				<g id="&lt;Group&gt;">
					<path id="&lt;Path&gt;" class="s0" d="m2551.1 1694.5l318.6 1254.3c0.9 3.5 4.4 5.6 7.8 4.7 3.5-0.9 5.5-4.3 4.7-7.8l-300.6-1258.7c-5.2-19.7-34.9-13.3-30.5 7.5z"/>
				</g>
				<g id="&lt;Group&gt;">
					<path id="&lt;Path&gt;" class="s0" d="m2411.3 2462.1l81.4 356c0.9 3.9 4.8 6.4 8.7 5.5 3.8-0.9 6.2-4.6 5.5-8.4l-64.9-359.3c-4.4-20.7-34.7-14.7-30.7 6.2z"/>
				</g>
				<g id="&lt;Group&gt;">
					<path id="&lt;Path&gt;" class="s0" d="m2645.4 835.7c101.5 358.6 212.9 769.5 319.2 1125.7 0.9 3 4.1 4.6 7 3.7 2.9-0.9 4.5-3.8 3.8-6.7-90.3-360.3-204.3-771-299.8-1131-5.8-19.6-35.2-12.4-30.2 8.3z"/>
				</g>
				<g id="&lt;Group&gt;">
					<path id="&lt;Path&gt;" class="s0" d="m1397.7 2578.9l62 322.3c0.6 3.2 3.7 5.3 6.8 4.6 3.1-0.5 5.1-3.4 4.7-6.5l-42.5-325.4c-3.5-21-34.2-16.2-31 5z"/>
				</g>
				<g id="&lt;Group&gt;">
					<path id="&lt;Path&gt;" class="s0" d="m1486.5 2542.3l45.1 228.5c1.8 8.7 14.9 6.7 14-2.2l-28.1-231.3c-3.3-21.1-34.3-16.3-31 5z"/>
				</g>
				<g id="&lt;Group&gt;">
					<g id="&lt;Group&gt;">
						<path id="&lt;Path&gt;" class="s1" d="m1795.4 2998.1c-200.2 289.2 161.1 363.6 228.8 650.1-67.7-286.5 224.3-505.3-86.1-681.7"/>
						<g id="&lt;Group&gt;">
							<path id="&lt;Path&gt;" class="s0" d="m2024.2 3663.9q1.8 0 3.7-0.4c8.4-2 13.6-10.4 11.6-18.9-25.6-108 1.6-204.8 27.8-298.5 40.3-143.8 78.3-279.7-121.4-393.2-7.6-4.3-17.1-1.6-21.4 5.9-4.3 7.5-1.6 17.1 5.9 21.4 178.4 101.4 146.8 214.4 106.7 357.4-17.3 61.7-36.1 128.9-38.7 200.9-34.9-63.9-82-116.5-125.4-164.9-100.4-112-179.7-200.5-64.7-366.6 4.9-7.1 3.1-16.9-4-21.8-7.1-4.9-16.9-3.2-21.8 4-129 186.4-33.7 292.7 67.2 405.3 65.7 73.4 133.7 149.3 159.3 257.4 1.7 7.2 8.1 12 15.2 12z"/>
						</g>
						<g id="&lt;Group&gt;">
							<path id="&lt;Path&gt;" class="s2" d="m1840.1 2983.3c-46.6 36.4-52.7 78.2-47 123.5 14.2 110.6 111.9 143.5 157.6 230.4 2.1-97.5 75.3-168.1 38.3-273.7-15.2-43.2-39.5-78.3-97.8-91.5"/>
						</g>
						<path id="&lt;Path&gt;" class="s3" d="m2128.6 2974.6c-214.8 311.3 173.7 390.7 246.9 698.7-73.2-308 240.4-543.6-93.5-732.8"/>
						<g id="&lt;Group&gt;">
							<path id="&lt;Path&gt;" class="s0" d="m2375.5 3689q1.8 0 3.7-0.5c7.2-1.7 12-8.1 12-15.2q0-1.8-0.4-3.6c-27.7-116.4 1.4-220.7 29.5-321.6 42.9-154.2 83.5-299.9-130.6-421.2-7.5-4.3-17.1-1.6-21.3 5.9-4.3 7.5-1.7 17.1 5.9 21.4 192.7 109.2 158.8 231.1 115.8 385.5-18.8 67.5-39.3 141-41.5 220-37.7-70.2-89.4-127.8-136.9-180.7-108.4-120.7-194.1-216-70.2-395.5 4.9-7.1 3.1-16.8-4-21.8-7.1-4.9-16.9-3.1-21.8 4-137.9 199.8-35.6 313.7 72.7 434.3 70.9 78.9 144.2 160.5 171.9 276.9 1.7 7.2 8.1 12.1 15.2 12.1z"/>
						</g>
						<g id="&lt;Group&gt;">
							<path id="&lt;Path&gt;" class="s2" d="m2176.6 2958.7c-50 39.2-56.5 84.1-50.3 132.8 15.4 118.9 120.5 154.1 169.7 247.5 2.1-104.8 80.8-180.9 40.8-294.3-16.3-46.4-42.5-84.1-105.2-98.2"/>
						</g>
					</g>
					<g id="&lt;Group&gt;">
						<g id="&lt;Group&gt;">
							<g id="&lt;Group&gt;">
								<path id="&lt;Path&gt;" class="s4" d="m2557.8 2285c-19.4 17.6-46.9 30.5-78 40-109.1 33.1-262.1 23.4-262.1 23.4l-110-718.3-15.5-101c11.1 3.4 276.4 11.8 418.9 87 118.9 62.7 141 583.1 46.7 668.9z"/>
							</g>
							<g id="&lt;Group&gt;" style="opacity: .3">
								<path id="&lt;Path&gt;" class="s0" d="m2557.8 2285c-19.4 17.6-46.9 30.5-78 40q-2.1 0.6-4.3 1.2-2.9 0.9-5.9 1.7-3.4 1-6.9 1.8-2.1 0.6-4.3 1.1-8.9 2.2-18.1 4.1-4 0.8-8 1.6-1.2 0.2-2.3 0.4-2.7 0.5-5.5 1-0.9 0.1-1.8 0.3-4.6 0.8-9.1 1.5-9.1 1.4-18.2 2.6-2.3 0.3-4.6 0.6-4.5 0.5-9.1 1-2.2 0.3-4.5 0.5c-1.5 0.2-3 0.3-4.5 0.5-3.6 0.4-7.2 0.7-10.7 1-1.8 0.2-3.5 0.3-5.2 0.4q-9.8 0.9-19.4 1.4-2.1 0.2-4.3 0.3-1 0-2.1 0.1-1.7 0.1-3.4 0.2-3.7 0.2-7.4 0.3-3.7 0.2-7.4 0.3-10.3 0.4-19.9 0.6-3.8 0.1-7.4 0.1-3.7 0.1-7.3 0.1-2.7 0-5.3 0c-2.7 0.1-5.3 0-7.8 0-1 0-2.1 0-3.1 0-27.1-0.2-44.3-1.3-44.3-1.3l-110-718.3c9.7 0.6 18.8 1.4 27.1 2 31.9 2.6 52.4 5 52.4 5 0 0 161.6-24.1 186.1 36 39.3 96.5 53.4 162.9 88.1 309.3 3.5 14.9 6.8 29.7 9.8 44.4 7.2 35.5 50.3 50.4 77.3 26.2q0.2-0.2 0.5-0.5c32-29.1 50.5-108.2 56.5-202.6 23.8 172.4 9.3 383.2-47.7 435.1z"/>
							</g>
							<g id="&lt;Group&gt;" style="opacity: .3">
								<path id="&lt;Path&gt;" class="s0" d="m2119.4 1531.7l15.4 100.4c-8.3-0.6-17.4-1.4-27.1-2l-15.5-101c1.9 0.6 11.7 1.3 27.2 2.6z"/>
							</g>
							<g id="&lt;Group&gt;">
								<path id="&lt;Compound Path&gt;" fill-rule="evenodd" class="s0" d="m2216.7 2364.1c-8.6-0.6-15.2-8-14.6-16.7 0.5-8.6 7.9-15.1 16.6-14.6 2.5 0.1 247 14.7 328.5-59.4 46.8-42.6 67.1-230.5 44.2-410.3-15.7-123.6-49.2-212.9-87.6-233.1-116-61.2-320.7-77.5-388-82.9-21-1.6-25-2-28.2-3-8.3-2.6-12.9-11.3-10.4-19.6 2.5-8 10.8-12.6 18.8-10.6 2.5 0.4 12.1 1.2 22.3 2 76.2 6 278.4 22.1 400.1 86.3 66.7 35.2 93.9 176.1 104.1 257 21.7 171 7.4 381.3-54.2 437.4-66.1 60.2-215.7 68.9-297 68.9-30.7 0-51.7-1.3-54.6-1.4zm-120.5-850.1q0.4 0.1 0.6 0.1-0.3-0.1-0.6-0.1zm0.6 0.1z"/>
							</g>
							<g id="&lt;Group&gt;">
								<path id="&lt;Path&gt;" class="s0" d="m2528.1 1615.4c-54.5 5.2-106.6 23.9-154.5 49.5 25.1-8.6 50.8-15.2 76.9-19.3 25.3-3.9 51.8-6.1 77.1-4.1 18.8 1.1 19.3-26.6 0.5-26.1z"/>
							</g>
							<g id="&lt;Group&gt;">
								<path id="&lt;Path&gt;" class="s4" d="m2613.1 1990.7l-130.2 17.3c-11.6 1.5-20.7 10.7-22.1 22.3-5.2 42.7-12.2 141.7 30.7 171.8 35.6 25 90.7 18.7 121.5-10.6 34.5-32.7 32.5-129.4 29.2-177.1-1-14.8-14.4-25.7-29.1-23.7z"/>
							</g>
							<g id="&lt;Group&gt;" style="opacity: .3">
								<path id="&lt;Path&gt;" class="s0" d="m2460.8 2030.4c-5.2 42.6-12.2 141.6 30.7 171.7 35.6 25 90.7 18.7 121.5-10.6 21.2-20.2 28.6-64.5 30.4-106.7-4.7 21.3-12.9 38.9-23.8 50.7-62.2 67.8-115.7-4.9-115.7-4.9 0 0-7.5 18.9-14.2 20.3-28.2 6-27.5-83.4-26-129.7-1.5 2.8-2.5 5.9-2.9 9.2z"/>
							</g>
							<g id="&lt;Group&gt;">
								<path id="&lt;Compound Path&gt;" fill-rule="evenodd" class="s0" d="m2482.5 2214.9c-48.2-33.8-44-131.3-37.3-186.5 2.3-18.6 17-33.4 35.7-35.9l130.1-17.3c11.4-1.5 22.9 1.7 31.7 8.9 8.8 7.2 14.3 17.9 15.1 29.2 4.7 67.3 2.6 154.8-34 189.6-21.1 20-50.7 30.4-79.7 30.4-22.2 0-44-6-61.6-18.4zm132.7-208.7l-130.2 17.3c-4.5 0.6-8.1 4.2-8.7 8.8-7.6 62.3-5.2 136.3 24.2 157 28.7 20.1 75.3 15.9 101.7-9.2 21-19.9 30.1-81.5 24.4-164.6-0.2-2.8-1.5-5.3-3.7-7.1-1.8-1.5-4.1-2.3-6.4-2.3q-0.7 0-1.3 0.1z"/>
							</g>
							<g id="&lt;Group&gt;">
								<path id="&lt;Path&gt;" class="s0" d="m2561.7 2206.7c-39.2-18.8-53.7-65.1-58.1-105.8-1.6-14.8-3-29.8-0.7-44.6-4.1 14.5-4.6 29.8-4.8 44.9-1.1 46.5 12 101.2 55.6 126 14.5 6.7 23.3-15.5 8-20.5z"/>
							</g>
						</g>
						<g id="&lt;Group&gt;">
							<g id="&lt;Group&gt;">
								<g id="&lt;Group&gt;">
									<path id="&lt;Path&gt;" class="s4" d="m1205.5 2507.9c2 14.1 12.9 26.1 28.3 28.5 40.9 6.2 87.1 1 127.2-7 0 26.1 20.9 57.4 52.2 47 48.3-13.8 100.8-42.3 147.6-77.4 42.2-31.7 67.9-80.6 70.8-133.2 28.6-218.6 77.1-482.6 87.8-660.3 6.7-112.4-1.6-190.2-39.8-200.1q-21.2 14.9-41.9 32.6c-60.6 51.9-102.6 122.2-122.2 199.5l-149.3 588.1c-67.3 56.5-140.4 113.6-159.1 165.5-2 5.7-2.5 11.4-1.6 16.8z"/>
								</g>
								<g id="&lt;Group&gt;">
									<path id="&lt;Compound Path&gt;" fill-rule="evenodd" class="s0" d="m1372.2 2584.6c-11.7-8.4-20.4-21.9-24.4-36.8-44.6 7.7-83.7 9-116.4 4-14.8-2.2-27.6-10.8-35.1-23.6-7.6-12.8-9.1-28.2-3.9-42.4 18.4-51 79.7-102.1 144.5-156.1q7.7-6.4 15.4-12.8l148-583.3c20.9-82.4 64.9-154.1 127.2-207.5 13.8-11.9 28.4-23.1 43.1-33.5 3.8-2.6 8.5-3.5 13-2.3 86.9 22.4 55.8 258.2-2.2 641-12 79.1-24.4 161-34.2 236-3.4 57.5-31.4 110.1-76.9 144.2-50.4 37.7-104.5 66.1-152.5 79.9-5.6 1.8-11.2 2.7-16.7 2.7-10.3 0-20.2-3.2-28.9-9.5zm275.7-1034.7c-57.4 49.1-97.9 115.3-117.2 191.4l-149.3 588.2c-0.8 3.2-2.6 6-5.1 8.1q-9.6 8.1-19.3 16.1c-58.8 49.1-119.6 99.8-135.2 142.7-1.9 5.5-1.4 11.1 1.4 15.8 2.8 4.7 7.4 7.8 13 8.7 33 5 73.9 2.7 121.7-6.9 4.6-0.9 9.4 0.3 13 3.2 3.6 3 5.7 7.5 5.7 12.2 0 11.5 5.9 24 13.9 29.8 5.3 3.8 11.1 4.5 17.8 2.3q0.3-0.1 0.6-0.2c44.4-12.7 95.1-39.3 142.6-74.9 38.2-28.7 61.7-72.9 64.4-121.4q0.1-0.6 0.1-1.2c9.9-75.5 22.4-157.7 34.4-237.2 22.4-148 45.6-301 53-416 8.8-137.1-7.8-176.9-21.9-187.2-11.5 8.3-22.8 17.2-33.6 26.5z"/>
								</g>
								<g id="&lt;Group&gt;">
									<path id="&lt;Path&gt;" class="s0" d="m1349.4 2360.1c25.4-24.8 68.9-30 104.1-23.7 6.9 1.3 9.7-8.7 3-11.1-40.7-14.2-90.1-15.1-127.2 10.7-18.3 13.7 3.3 39.6 20.1 24.1z"/>
								</g>
								<g id="&lt;Group&gt;">
									<path id="&lt;Path&gt;" class="s0" d="m1350.8 2547.2c18.6-6.6 33.9-18.6 47.3-31.8 12.8-12.7 23.8-26.2 34.9-39.4 2-2.5 1.7-6.1-0.8-8.2-2.1-1.8-5.3-1.8-7.4 0-24.5 19.4-51.6 44.3-82 49.1-23 4.4-14.2 37.8 8 30.3z"/>
								</g>
								<g id="&lt;Group&gt;" style="opacity: .3">
									<g id="&lt;Group&gt;">
										<path id="&lt;Path&gt;" class="s0" d="m1205.5 2507.9c2 14.1 12.9 26.1 28.3 28.5 40.9 6.2 87.1 1 127.2-7 0 26.1 20.9 57.4 52.2 47 48.3-13.8 100.8-42.3 147.6-77.4 42.2-31.7 67.9-80.6 70.8-133.2 28.6-218.6 77.1-482.6 87.8-660.3-29.6-2.3-60-1.6-88.7-8.7l-27.5-17.9c-78.1 171.9-97.8 365.2-90.2 553.8 0.9 21.8 1.3 46-13.2 62.1-30.8 34.6-98.5 3.1-129.2 37.8 27.3-15.1 63.6 8.8 70.3 39.2 6.6 30.4-8.4 61.6-28.1 85.7-31.1 38.1-76.6 65.8-125.7 69.3-28.3 2.1-57.3-4.7-81.6-18.9z"/>
									</g>
								</g>
							</g>
							<g id="&lt;Group&gt;">
								<g id="&lt;Group&gt;">
									<path id="&lt;Path&gt;" class="s4" d="m1690.1 2848c-46.3 49.7-72.4 102.6-41.3 165.3 0.5 1.1 1.2 2.3 1.8 3.5 11.9 22.4 35.5 36.3 60.9 36.5 126.3 0.8 240-42.6 323.4-116.5l88.8-130.6-114.9-470.1-294.9-93.5-133.5-42.4c0.2 213.2 27.6 428.5 109.7 647.8z"/>
								</g>
								<g id="&lt;Group&gt;">
									<path id="&lt;Compound Path&gt;" fill-rule="evenodd" class="s0" d="m1711.3 3068.9c-31.5-0.2-60-17.3-74.5-44.8-40.6-76.6-1.6-138.2 35.3-179.6-72-195.7-107.1-406.6-107.4-644.2 0-5 2.4-9.7 6.4-12.7 4.1-3 9.3-3.8 14-2.3l428.4 135.8c5.2 1.7 9.2 5.9 10.5 11.2l114.9 470.2c1.1 4.3 0.2 8.9-2.2 12.5l-88.9 130.6q-1.1 1.7-2.5 3c-87.8 77.7-205 120.4-330.3 120.3q-1.8 0-3.7 0zm395.5-265.7l-111.2-454.9-399.4-126.6c2.3 228.7 37.9 432 108.6 620.8 2.1 5.6 0.8 11.9-3.2 16.2-52.3 56-63.4 101.1-37.1 150.8 9.1 17.2 27.1 28 47.1 28.1 118.3 0.9 228.8-38.7 311.4-111.2z"/>
								</g>
								<g id="&lt;Group&gt;">
									<path id="&lt;Path&gt;" class="s0" d="m1683.1 2862c49.5 20 103.6 12.3 149.9-9.3 5.5-2.7 2.1-11.2-3.7-9.3-42.7 13.1-94 13.4-132.2-9.4-19.7-10.9-34.6 18.8-14 28z"/>
								</g>
								<g id="&lt;Group&gt;">
									<path id="&lt;Path&gt;" class="s0" d="m1759.9 2712c113.3 0 236.7-44.5 318.9-122.2 6.3-5.9 6.5-15.8 0.6-22.1-5.9-6.3-15.9-6.6-22.2-0.7-119.9 113.4-305.5 136.3-415.6 93-8-3.2-17.1 0.8-20.3 8.8-3.2 8.1 0.8 17.2 8.8 20.3 39.3 15.5 83.8 22.9 129.8 22.9z"/>
								</g>
								<g id="&lt;Group&gt;" style="opacity: .3">
									<g id="&lt;Group&gt;">
										<path id="&lt;Path&gt;" class="s0" d="m1648.8 3013.3c0.5 1.1 1.2 2.3 1.8 3.5 11.9 22.4 35.5 36.3 60.9 36.5 126.3 0.8 240-42.6 323.4-116.5l88.8-130.6-114.9-470.1-294.9-93.5c-6.7 6.8-11.7 15-14.4 24.7-4 14.2-2.3 29.2 0.6 43.6 7.5 37.5 23.1 73.3 45.2 104.5l-8.6-5.4c32.9 25.3 63.4 55 82.2 92 16.9 33.3 23.4 70.8 29.7 107.7q8.6 49.4 17 98.9c5.5 32 10.9 65.6 0.9 96.4-9.8 30.2-39.4 56.3-70.4 51.8 23.2 4.3 49.4 12.1 57.3 34 5.2 14.6 0.1 30.8-7 44.6-25.3 49.1-77.2 83.3-132.1 87.2-22.2 1.6-44.6-1.8-65.5-9.3z"/>
									</g>
								</g>
							</g>
							<g id="&lt;Group&gt;">
								<g id="&lt;Group&gt;">
									<path id="&lt;Path&gt;" class="s4" d="m1560 2150.3c13.6 68.9 38.5 128.6 75.7 176 65.4 83.8 169 129.3 315.6 119.5 15.2 154 34 301.5 83.6 391.8-46.1 21-73.2 73.9-64.9 133.2 0.8 5.7 1.9 11.4 3.3 17.2 4.5 17.7 18.5 31.3 36.1 36 161.9 42.5 431.6-57.1 406.8-170.7-49.5-167.5-60.3-363.9-52.2-574.7l-32.8-141.7-129.1-558.3-501.6-88.8-99.2 182.8c-51.5 178.2-67.5 345-41.3 477.7z"/>
								</g>
								<g id="&lt;Group&gt;">
									<path id="&lt;Path&gt;" class="s0" d="m1594.3 1670.6c-85.5 250.6-124.1 678.4 193.2 775.5 53.5 15.3 110.1 19 164.8 15.3l-16.6-14.1c6.7 67 13.9 134.1 25.5 201 12.1 67.6 27.2 135.1 59.9 196.8l7.3-21.8c-47.4 21.2-75.2 72.9-75.4 123.5-0.3 17.1 1.8 33 6.5 49.7 6.3 19 21.6 34.2 40.1 40.8 45.4 13.4 94.2 14.3 140.8 10 61.7-6 122-22 178.1-48.8 55.2-27.1 126.7-77 113.1-148.6-54.5-185.7-57.7-382.3-52.3-574.8l-162-700.1c-1.4-6.3-6.5-10.8-12.5-11.9l-501.5-88.8c-8.5-1.5-16.7 4.2-18.2 12.7-1.5 8.5 4.2 16.7 12.7 18.2l501.5 88.8-12.5-11.9 161.9 700c-5.2 74.7-3.3 196.6 3.2 287.2 6.9 95.3 22.7 199.2 49 287.3 9.3 53.7-53.9 92.3-96.1 113.7-78.1 36.7-167.9 54.7-253.9 45.4-12.4-1.3-24.6-3.8-36.7-6.7-20.8-5.1-26.9-22.2-28.7-41.5-7-44.9 13.3-96.7 55.9-115.7 7.8-3.5 11.3-12.8 7.8-20.7-30.8-57.7-45.6-123.7-57.2-188.2-51.7-294.3 30-184.5-165.7-219.8-234-45.3-280.7-293.3-261.3-497.2 7.1-84.5 23.8-168.1 43.3-251.3 0.9-3.9-1.5-7.8-5.5-8.8-3.6-0.8-7.3 1.3-8.5 4.8z"/>
								</g>
								<g id="&lt;Group&gt;">
									<path id="&lt;Path&gt;" class="s0" d="m2027.9 2851.6c46.5 20.4 99.5 16.3 145.1-1.9 3.7-1.5 5.6-5.7 4.1-9.4-1.4-3.5-5.1-5.4-8.7-4.4-42 11.2-89.2 9.8-126.5-12.3-19.5-10.5-34.2 18.6-14 28z"/>
								</g>
								<g id="&lt;Group&gt;">
									<path id="&lt;Path&gt;" class="s0" d="m1881 2461.8c71.6 3.7 148.2-11.6 204.8-57.7 2.9-2.3 3.3-6.4 1-9.3-2.2-2.7-5.9-3.1-8.8-1.4-29.6 15.7-61.5 27.3-94.6 32.3-33.4 6-67.9 5.5-101.8 4.9-20.1 0.5-20.8 29.9-0.6 31.2z"/>
								</g>
								<g id="&lt;Group&gt;">
									<path id="&lt;Path&gt;" class="s0" d="m2108.9 2700.4c103.7 0 214.2-32 272.2-99.9 5.6-6.6 4.9-16.5-1.7-22.1-6.6-5.6-16.5-4.8-22.1 1.8-74.6 87.2-258 109.1-372.1 70.3-8.2-2.7-17.1 1.7-19.9 9.9-2.8 8.1 1.6 17 9.8 19.8 39.2 13.3 85.8 20.2 133.8 20.2z"/>
								</g>
								<g id="&lt;Group&gt;" style="opacity: .3">
									<g id="&lt;Group&gt;">
										<path id="&lt;Path&gt;" class="s0" d="m2139 1800.2q3.9 33.2 7.8 66.4c2.1 18.2 4.3 36.7 1.2 54.7-3.1 18.1-12.2 35.9-27.9 45.3-23.5 14.2-53.5 6-79.5-2.6q-4.9 41.1-9.7 82.1c-1.2 10.1-2.2 21.1 3.2 29.7 5.2 8.5 15.3 12.4 24.8 15.6 50.5 17 103.5 26.6 156.8 28.4 17.5 0.6 38-1.2 47.4-15.9 7.1-11 5.2-25.3 3-38.1-8.1-48.3-16.4-96.9-33.9-142.5-17.5-45.7-45.1-88.8-85.3-116.8"/>
									</g>
								</g>
								<g id="&lt;Group&gt;" style="opacity: .3">
									<g id="&lt;Group&gt;">
										<path id="&lt;Path&gt;" class="s0" d="m2144 2847.8c-6.1 1.2-12.1 2.7-17.9 4.2 6-1.2 12-2.6 17.9-4.2z"/>
									</g>
								</g>
								<g id="&lt;Group&gt;" style="opacity: .3">
									<g id="&lt;Group&gt;">
										<path id="&lt;Path&gt;" class="s0" d="m1942.6 2438.1c-11.5 1.1-23 1.7-34.6 1.8 11.5 0.3 23.2 0.1 34.6-1.8z"/>
									</g>
								</g>
								<g id="&lt;Group&gt;" style="opacity: .3">
									<g id="&lt;Group&gt;">
										<path id="&lt;Path&gt;" class="s0" d="m1560 2150.3c13.6 68.9 38.5 128.6 75.7 176l15.8-15.7c86.8-4.4 173.9-1.5 260.2 8.5 19.7 2.3 39.9 5.1 57.5 14.5 17.5 9.3 32.1 26.5 32.9 46.4 0.8 20.9-14.2 40.1-32.8 49.6-8.4 4.3-17.4 6.9-26.7 8.5 23.4-2.4 46.5-7.2 68.9-14.3 29.7-9.4 60.2-23 90.6-16.5 37 7.9 61.8 43.5 74.2 79.3 32.4 94 4.9 199.9 33.3 295.2 3.3 11.2 7.3 23.9 1.2 33.8-3.5 5.8-9.5 9.2-15.5 12.3-16.3 8.3-33.5 15-51.2 19.8 18.9-3.9 38.4-4.8 54.2 5.3 23 14.8 27.5 48.8 15.4 73.3-12.2 24.4-36.8 40.4-62.1 50.6-57.9 23.2-125.1 20.1-181.6-6.1 0.8 5.7 1.9 11.4 3.3 17.2 4.5 17.7 18.5 31.3 36.1 36 161.9 42.5 431.6-57.1 406.8-170.7-49.5-167.5-60.3-363.9-52.2-574.7l-32.8-141.7c-111.8-24.1-224.4-44.5-338.4-51.7-134.9-8.6-272.4 1.8-400.3 45.4-9.4 3.2-19.1 6.7-26.6 13.4-2.2 2-4.2 4.1-5.9 6.3z"/>
									</g>
								</g>
							</g>
							<g id="&lt;Group&gt;">
								<g id="&lt;Group&gt;">
									<g id="&lt;Group&gt;">
										<path id="&lt;Path&gt;" class="s4" d="m1618.1 2267.9l374.1 1c44.3 0.1 80.7-36.1 80.8-80.4l0.5-199.1c0.1-38.8-27.6-71.5-64.2-79.1-5.2-1.1-10.6-1.6-16.1-1.7l-374.1-1c-44.3-0.1-80.7 36.1-80.8 80.4l-0.4 157.7-0.2 41.4c-0.1 44.3 36.1 80.6 80.4 80.8z"/>
									</g>
									<g id="&lt;Group&gt;" style="opacity: .3">
										<path id="&lt;Path&gt;" class="s0" d="m1618.1 2267.9l374.1 1c44.3 0.1 80.7-36.1 80.8-80.4l0.5-199.1c0.1-38.8-27.6-71.5-64.2-79.1-21.3 14.1-34.8 23-34.8 23-18.7 159.8-12 278.3-259.9 261.2-85.5-5.9-142.7-31.2-176.7-48.8l-0.2 41.4c-0.1 44.3 36.1 80.6 80.4 80.8z"/>
									</g>
									<g id="&lt;Group&gt;">
										<path id="&lt;Compound Path&gt;" fill-rule="evenodd" class="s0" d="m1992.2 2281.9l-374.1-1c-24.9 0-48.4-9.9-66.1-27.6-17.7-17.8-27.4-41.3-27.3-66.2l0.5-199.2c0.2-51.5 42.1-93.3 93.7-93.3q0.1 0 0.2 0l374.1 1c51.6 0.1 93.5 42.2 93.4 93.8l-0.5 199.2c-0.2 51.5-42.1 93.3-93.7 93.3q-0.1 0-0.2 0zm-440.9-293.9l-0.5 199.1c0 18 7 34.9 19.7 47.8 12.8 12.8 29.7 19.9 47.6 19.9l374.2 1q0.1 0 0.1 0c17.9 0 34.8-7 47.6-19.7 12.8-12.8 19.9-29.7 19.9-47.6l0.6-199.1c0.1-37.3-30.1-67.6-67.3-67.7l-374.2-1q-0.1 0-0.1 0c-37.2 0-67.5 30.1-67.6 67.3z"/>
									</g>
									<g id="&lt;Group&gt;">
										<path id="&lt;Path&gt;" class="s4" d="m1603.1 2266.4q7.2 1.5 15 1.5l374.1 1c32.5 0 60.7-19.3 73.5-47.2 4.6-10.1 7.3-21.4 7.3-33.2l0.2-88.4 0.1-29.2 0.2-81.5c0.2-44.3-36-80.6-80.3-80.8l-80.9-0.2c37.3 7.2 65.6 40.1 65.5 79.3l-0.3 107.5-0.2 91.6c-0.2 44.3-36.5 80.5-80.8 80.4z"/>
									</g>
									<g id="&lt;Group&gt;" style="opacity: .3">
										<path id="&lt;Path&gt;" class="s0" d="m1603.1 2266.4q7.2 1.5 15 1.5l374.1 1c44.3 0.1 80.7-36.1 80.8-80.4l0.3-117.6c-9.4 20.7-26.4 46.2-53.5 48.8-14.8 1.5-29.4-9.2-42.3-24.5l-0.2 91.6c-0.2 44.3-36.5 80.5-80.8 80.4z"/>
									</g>
									<g id="&lt;Group&gt;">
										<path id="&lt;Compound Path&gt;" fill-rule="evenodd" class="s0" d="m1992.2 2281.9l-374.1-1c-5.9 0.1-11.8-0.5-17.6-1.7-6.6-1.4-11.1-7.5-10.4-14.1 0.7-6.7 6.3-11.8 13-11.8l293.5 0.8c17.8-0.1 34.8-6.9 47.6-19.7 12.9-12.7 20-29.6 20-47.6l0.5-199.1c0.1-32.4-22.9-60.4-54.8-66.5-6.6-1.2-11.2-7.3-10.5-14 0.6-6.7 6.2-11.9 13-11.9l80.8 0.2c24.9 0.1 48.4 10 66.1 27.7 17.7 17.8 27.4 41.3 27.3 66.2l-0.6 199.2c0 24.9-9.8 48.3-27.6 66-17.7 17.6-41.1 27.3-65.9 27.3q-0.1 0-0.3 0zm-1.4-294.2l-0.5 199.2c0 24.9-9.9 48.4-27.6 66q-1.5 1.5-3 2.8l32.6 0.1q0.1 0 0.2 0c17.8 0 34.7-7 47.5-19.7 12.8-12.8 19.9-29.7 19.9-47.6l0.6-199.1c0-18-7-34.9-19.7-47.8-12.8-12.8-29.7-19.9-47.7-19.9l-29.5-0.1c17 17.1 27.3 40.6 27.2 66.1z"/>
									</g>
									<g id="&lt;Group&gt;">
										<path id="&lt;Path&gt;" class="s5" d="m1830 2088.5c0 7.4 10.6 66.8 10.6 66.8 0 0 18.8-0.1 41.9-0.2 28.9-0.1 52.2-30 52.1-66.9-0.1-36.9-23.6-66.8-52.5-66.7-19.5 0.1-41.9 0.2-41.9 0.2 0 0-10.2 54.8-10.2 66.8z"/>
									</g>
									<g id="&lt;Group&gt;" style="opacity: .3">
										<path id="&lt;Path&gt;" class="s0" d="m1830 2088.5c0 7.4 10.6 66.8 10.6 66.8 0 0 18.8-0.1 41.9-0.2 28.9-0.1 52.2-30 52.1-66.9-0.1-36.9-23.6-66.8-52.5-66.7-19.5 0.1-41.9 0.2-41.9 0.2 0 0-10.2 54.8-10.2 66.8z"/>
									</g>
									<g id="&lt;Group&gt;">
										<path id="&lt;Compound Path&gt;" fill-rule="evenodd" class="s0" d="m1830.3 2157.1c-2.5-14.2-10.7-60.9-10.7-68.6-0.1-12.6 9.2-63 10.3-68.7 0.9-5 5.2-8.6 10.2-8.6l42-0.1q0 0 0.1 0c34.6 0 62.7 34.5 62.9 77 0 20.2-6.2 39.3-17.4 53.8-11.9 15.2-27.9 23.6-45.2 23.7l-41.9 0.1c-5.1 0-9.4-3.6-10.3-8.6zm51.8-125.1l-33.2 0.1c-3.8 20.9-8.5 49.3-8.4 56.3 0 4.1 4.3 30.5 8.8 56.4l33.2-0.1c10.7 0 20.9-5.6 28.7-15.7 8.4-10.8 13-25.3 13-40.8-0.1-31-18.9-56.2-42-56.2q0 0-0.1 0z"/>
									</g>
									<g id="&lt;Group&gt;">
										<path id="&lt;Path&gt;" class="s5" d="m1840.4 2021.7c28.9 0 52.3 29.9 52.3 66.8 0 36.9-23.4 66.8-52.3 66.8-28.9 0-52.3-29.9-52.3-66.8 0-36.9 23.4-66.8 52.3-66.8z"/>
									</g>
									<g id="&lt;Group&gt;" style="opacity: .3">
										<path id="&lt;Path&gt;" class="s0" d="m1892.7 2088.3c0.1 36.9-23.2 66.9-52.1 67-28.9 0.1-52.4-29.8-52.5-66.7-0.1-5 0.4-9.9 1.2-14.5 7.5 25.3 26.7 43.3 49.1 43.2 25-0.1 45.8-22.5 50.9-52.4 2.1 7.3 3.3 15.2 3.4 23.4z"/>
									</g>
									<g id="&lt;Group&gt;">
										<path id="&lt;Path&gt;" class="s4" d="m1892.7 2088.3q0 3.8-0.4 7.4c-5.8-28.8-26.4-50.2-50.8-50.1-26.9 0.1-49 26.2-51.7 59.6q-1.7-8-1.7-16.6c-0.2-36.9 23.2-66.9 52-67 28.9 0 52.4 29.8 52.6 66.7z"/>
									</g>
									<g id="&lt;Group&gt;">
										<path id="&lt;Compound Path&gt;" fill-rule="evenodd" class="s0" d="m1777.6 2088.7c-0.1-42.6 27.9-77.4 62.5-77.5q0.1 0 0.2 0c34.5 0 62.7 34.5 62.8 77.1 0.1 20.1-6.1 39.2-17.4 53.7-11.8 15.2-27.9 23.7-45.1 23.7q-0.1 0-0.2 0c-34.5 0-62.7-34.5-62.8-77zm62.6-56.6c-23.1 0.1-41.8 25.4-41.7 56.5 0.1 31 18.9 56.2 41.9 56.2q0.1 0 0.1 0c10.7 0 20.9-5.6 28.7-15.6 8.5-10.8 13.1-25.3 13-40.9-0.1-31-18.9-56.2-41.9-56.2q-0.1 0-0.1 0zm-52.1 56.5h-0.1z"/>
									</g>
									<g id="&lt;Group&gt;">
										<path id="&lt;Path&gt;" class="s0" d="m1734.4 2279.3q0.1 0 0.3 0c6.9-0.2 12.4-5.9 12.2-12.8l-2.9-138.1c0-4.2-2.2-8.1-5.8-10.4l-58.1-36.7-0.2-173.4c0-7-5.6-12.6-12.5-12.6-6.9 0-12.5 5.7-12.5 12.6l0.1 180.3c0 4.3 2.2 8.3 5.8 10.6l58.3 36.8 2.8 131.4c0.1 6.8 5.7 12.3 12.5 12.3z"/>
									</g>
								</g>
								<g id="&lt;Group&gt;">
									<g id="&lt;Group&gt;">
										<path id="&lt;Path&gt;" class="s4" d="m2254 2149h-168.1c-31.5 0-57-25.5-57-57 0-31.5 25.5-57 57-57h168.1c31.5 0 57 25.5 57 57 0 31.5-25.5 57-57 57z"/>
									</g>
									<g id="&lt;Group&gt;" style="opacity: .3">
										<path id="&lt;Path&gt;" class="s0" d="m2294.8 2052.2c-3.5 28.1-27.4 49.8-56.4 49.8h-168.2c-16 0-30.4-6.7-40.8-17.3-0.3 2.4-0.5 4.8-0.5 7.3 0 31.5 25.5 57 57 57h168.1c31.5 0 57-25.5 57-57 0-15.5-6.2-29.5-16.2-39.8z"/>
									</g>
									<g id="&lt;Group&gt;">
										<path id="&lt;Compound Path&gt;" fill-rule="evenodd" class="s0" d="m2015.9 2092c0-38.6 31.4-70.1 70-70.1h168.1c38.7 0 70.1 31.5 70.1 70.1 0 38.6-31.4 70-70.1 70h-168.1c-38.6 0-70-31.4-70-70zm70-43.9c-24.2 0-43.9 19.7-43.9 43.9 0 24.2 19.7 43.9 43.9 43.9h168.1c24.3 0 44-19.7 44-43.9 0-24.2-19.7-43.9-44-43.9z"/>
									</g>
								</g>
							</g>
							<g id="&lt;Group&gt;">
								<g id="&lt;Group&gt;">
									<path id="&lt;Path&gt;" class="s4" d="m2113.2 1630.8l26.2 167.2c3.7 5.9 7.6 13.7 11.7 23.1 35.9 81.5 88.5 284.7 156.6 465.8 30.7 81.7 85.2 152.7 157.5 201.8q8 5.4 15.4 9.8c14.4 8.7 31.4 12.6 47.9 9.5 9-1.7 16.9-5 23.2-10.2 11.5-9.4 17.6-24.8 16-46.8 8.8 1.5 17.5 2.9 26.1 4h0.1c48.2 6.4 93.5 6.1 132.7-8.4 21.5-8.1 36.2-28.7 35.9-51.7v-0.7c-0.3-11.5-4.5-22.2-11.4-31.1-3.8-4.8-8.3-9.1-13.5-12.5-29.4-19.4-56.2-41.2-80.3-65.3-27.1-27-47.4-60.1-60.5-96.1-103.9-284.9-168.2-628.5-337.3-589.7z"/>
								</g>
								<g id="&lt;Group&gt;">
									<path id="&lt;Path&gt;" class="s0" d="m2134.7 1800.9c27.5 59 50.4 154.6 70.7 217.6 22.3 73.6 44.8 147.3 70 220.3 12.8 37 25 74.5 43.9 109 35.1 65.8 87.2 123.2 150.8 162.6 51.8 33.4 119.9 6.7 113.3-60.5l-18.3 16.5c50.6 8.7 105.3 13.7 155.9-1.5 26.2-6.4 48.9-26 55.2-53 8.1-32.7-8.8-62.9-37-79.1-47.2-33-93.1-72-117.7-125.3-48-118.4-79.7-243.3-124.2-363.5-38.5-100.1-103.7-289.6-240.7-259.9-38.1 8.1-107.9 23.1-146.6 31.4-20.1 5-13.9 34.3 6.5 30.6 28.3-6.1 98.6-21 125.9-26.9 11.2-2.5 28.1-6.6 39.4-7 79.7-2.1 126.4 100.9 155 163.6 55.6 131.2 91.4 269.8 139.9 404 14 42.7 36.3 83.5 68.4 115.5 20.8 21 43.4 39.9 67.4 57l9 6.3 8.6 5.9c8.4 5.9 14.5 15.1 16.2 25 2.6 15.1-5 31.1-18.3 39-10.8 6-23.2 8.5-35.3 11-40.4 7.3-81.4 3-122.3-3.9-8.5-1.5-16.6 4.2-18.1 12.7-0.3 8.8 0.5 18.6-2.6 25.8-9.5 24.9-44.3 22.9-63.3 9.6-59-36.7-107.8-89-141.1-150-18.3-33-30.4-68.8-43.5-104.2-26.3-71.9-50-145-73.6-218.1-21.2-64-41.1-129.1-69.7-190.4l-6.6-13.1-7.9-12.8c-1.6-2.6-4.9-3.4-7.5-1.8-2.6 1.6-3.4 5-1.8 7.6z"/>
								</g>
								<g id="&lt;Group&gt;">
									<path id="&lt;Path&gt;" class="s0" d="m2610.4 2441.3c-35.6-4.3-71.3-13.2-97.2-39.6-3-3.2-8.2 0.9-5.8 4.6 20.8 33.6 59.4 53.1 95.8 65.5 22.1 6.8 30-26.6 7.2-30.5z"/>
								</g>
								<g id="&lt;Group&gt;">
									<path id="&lt;Path&gt;" class="s0" d="m2246 2120.6q0.9 0 1.9-0.1c132.1-19 238-77.1 283.2-155.5 3.7-6.2 1.5-14.2-4.7-17.8-6.3-3.6-14.3-1.5-17.9 4.8-41.3 71.4-140.1 124.7-264.3 142.6-7.2 1-12.1 7.7-11.1 14.8 0.9 6.5 6.5 11.2 12.9 11.2z"/>
								</g>
								<g id="&lt;Group&gt;" style="opacity: .3">
									<g id="&lt;Group&gt;">
										<path id="&lt;Path&gt;" class="s0" d="m2151.1 1821.1c35.9 81.5 88.5 284.7 156.6 465.8 30.7 81.7 85.2 152.7 157.5 201.8q8 5.4 15.4 9.8c14.4 8.7 31.4 12.6 47.9 9.5 9-1.7 16.9-5 23.2-10.2-13.9 1.8-27.8 1.2-40.9-4-19.5-7.7-34-24.3-47.3-40.5-40.9-49.8-79-103-104.3-162.5-10.9-25.7-19.3-52.4-27.7-79q-24.6-77.8-49.3-155.5c-28-88.6-59-181.9-129.4-242.7z"/>
									</g>
								</g>
								<g id="&lt;Group&gt;" style="opacity: .3">
									<g id="&lt;Group&gt;">
										<path id="&lt;Path&gt;" class="s0" d="m2519.1 2406.4l11.4 9c19.5 15.6 40.8 28.9 63.3 39.6h0.1c48.2 6.4 93.5 6.1 132.7-8.4 21.5-8.1 36.2-28.7 35.9-51.7v-0.7c-0.3-11.5-4.5-22.2-11.4-31.1-8.5-6.7-17.3-12.8-26.1-18.7 14.9 11.1 13.5 36.3 0.9 50.4-13 14.6-33.5 19.8-52.8 22.7-51.3 7.7-104.4 3.9-154-11.1z"/>
									</g>
								</g>
							</g>
							<g id="&lt;Group&gt;">
								<path id="&lt;Path&gt;" class="s6" d="m1967.6 1252.9q1.8 0.8 3.5 1.6c-0.9 0-1.7 0-2.6 0-0.6-1.1-0.9-1.6-0.9-1.6z"/>
							</g>
							<g id="&lt;Group&gt;" style="opacity: .3">
								<path id="&lt;Path&gt;" class="s0" d="m2036.6 1482.9l-36 116.1c-8.6-5-18-10.6-28.1-16.4l36.1-116.8c1.8 1.7 11.9 7.6 28 17.1z"/>
							</g>
							<g id="&lt;Group&gt;">
							</g>
							<g id="&lt;Group&gt;">
								<g id="&lt;Group&gt;">
									<path id="&lt;Path&gt;" class="s4" d="m1417.1 1083.7c11.9 104.7 50.4 207 115.4 296.5 13.3 18.3 27.6 36 43 53 7.5 8.4 15.3 16.5 23.3 24.6 24.3 24.3 50.2 46.2 77.2 65.8 23.3 16.9 47.5 32 72.4 45.4 30 16.2 61.1 29.8 92.8 40.9q17.4 6 35 11.1c214.9 61.4 455.6 9.8 625.2-155.8 249.9-243.9 250.9-642.6 2.4-890.5-47.9-47.7-101.6-86.5-158.8-116-6.7-3.5-13.5-6.8-20.3-10q-27.4-13-55.6-23.3c-43.6-15.7-88.5-26.7-133.8-32.8-45.4-6.2-91.3-7.6-136.8-4.1q-21.7 1.6-43.3 4.8c-21.6 3.1-43.1 7.3-64.4 12.6-106 26.4-206.4 80.2-289.6 161.5-143.8 140.2-205.1 331.7-184.1 516.3z"/>
									<path id="&lt;Compound Path&gt;" fill-rule="evenodd" class="s0" d="m1875.8 1622.5c-11.7-3.4-23.5-7.1-35.1-11.1-32.1-11.2-63.5-25-93.1-41-25.3-13.6-49.7-29-72.5-45.6-27.3-19.7-53.4-41.9-77.4-65.9-8.8-8.8-16.5-16.9-23.4-24.6-15.1-16.8-29.6-34.7-43.1-53.2-63.5-87.4-103.5-190.2-115.7-297.2-22-193.1 45.3-381.7 184.6-517.6 80.6-78.7 181-134.6 290.4-161.9 20.7-5.2 42.4-9.5 64.4-12.7 14.2-2 28.8-3.7 43.5-4.8 45.6-3.4 91.7-2.1 137.1 4.1 45.8 6.2 90.9 17.3 134.1 33 18.8 6.8 37.6 14.6 55.8 23.3 7.3 3.4 14 6.7 20.3 10 58.4 30.1 112 69.3 159.2 116.3 121 120.7 187.1 280.4 186.2 449.7-0.9 167.9-67.9 325.2-188.6 443-120.6 117.7-282.4 181.2-448.2 181.2-59.6 0-119.7-8.2-178.5-25zm122.8-1232.4c-14.6 1.1-29.2 2.7-43.2 4.7-22 3.2-43.6 7.5-64.2 12.7-108.8 27.1-208.7 82.8-288.9 161-138.6 135.2-205.5 322.9-183.6 515 12.1 106.5 51.9 208.8 115.1 295.8 13.4 18.4 27.8 36.2 42.9 52.9 6.8 7.7 14.5 15.7 23.2 24.5 23.9 23.9 49.8 45.9 77 65.6 22.8 16.5 47.1 31.7 72.2 45.3 29.5 15.9 60.7 29.6 92.7 40.8 11.5 4 23.2 7.7 34.9 11.1 221.6 63.3 460.5 3.7 623.6-155.5 120.1-117.1 186.7-273.7 187.6-440.8 1-168.4-64.8-327.3-185.2-447.4-47-46.8-100.3-85.7-158.4-115.7-6.4-3.3-13-6.6-20.3-10-18.1-8.6-36.8-16.4-55.5-23.2-43-15.6-87.9-26.6-133.5-32.8-28.9-3.9-58.1-5.9-87.3-5.9-16.4 0-32.8 0.6-49.1 1.9z"/>
								</g>
								<g id="&lt;Group&gt;" style="opacity: .3">
									<path id="&lt;Path&gt;" class="s0" d="m2501.4 1465.2c-169.6 165.6-410.3 217.2-625.2 155.8q-17.6-5.1-34.9-11.1c-31.8-11.1-62.9-24.7-92.9-40.9-24.9-13.4-49.1-28.5-72.4-45.4-27.1-19.6-52.9-41.5-77.2-65.8-8-8.1-15.8-16.2-23.3-24.6-15.5-17-29.7-34.8-43-53-65-89.6-103.5-191.8-115.4-296.5-6.6-57.5-5.1-115.7 4.3-172.8 13.7 99.6 51.6 196.6 113.6 282.1q19.9 27.4 43 53c7.4 8.3 15.3 16.5 23.3 24.6 24.3 24.3 50.1 46.2 77.2 65.7 23.3 16.9 47.5 32 72.4 45.5 30 16.1 61.1 29.8 92.8 40.9q17.4 6 35 11c214.9 61.5 455.6 9.8 625.2-155.8 99-96.6 158.9-217.4 179.7-343.6 26.1 189-34.7 386.9-182.2 530.9z"/>
								</g>
								<g id="&lt;Group&gt;">
									<path id="&lt;Compound Path&gt;" fill-rule="evenodd" class="s0" d="m1872.9 1632.6c-11.9-3.4-23.9-7.2-35.6-11.3-32.7-11.4-64.6-25.4-94.7-41.6-25.7-13.9-50.5-29.5-73.7-46.3-27.8-20.1-54.2-42.6-78.7-67-8.9-9-16.7-17.2-23.7-25-15.4-17.1-30.1-35.3-43.8-54.1-64.6-88.9-105.2-193.4-117.6-302.2-22.4-196.3 46-388.2 187.6-526.4 81.9-79.9 184-136.8 295.2-164.5 21-5.3 43.1-9.7 65.5-12.9 14.4-2.1 29.2-3.8 44.1-4.9 46.4-3.5 93.3-2.1 139.4 4.2 46.5 6.2 92.4 17.5 136.3 33.4 19.1 7 38.2 15 56.6 23.7 7.5 3.5 14.3 6.9 20.8 10.2 59.3 30.7 113.8 70.4 161.8 118.2 123 122.7 190.2 285.1 189.2 457.2-0.9 170.8-69 330.8-191.7 450.6-122.6 119.6-287.1 184.1-455.6 184.1-60.6 0-121.6-8.3-181.4-25.4zm126.5-1232c-14.4 1.1-28.7 2.7-42.5 4.7-21.6 3.1-42.8 7.3-63.1 12.4-107.1 26.7-205.3 81.4-284.1 158.4-136.3 132.9-202.1 317.4-180.5 506.2 11.9 104.7 51 205.2 113.1 290.8 13.2 18.1 27.4 35.6 42.2 52 6.8 7.6 14.3 15.5 22.9 24.1 23.5 23.5 49 45.2 75.7 64.5 22.4 16.3 46.3 31.3 71 44.6 29 15.7 59.7 29.2 91.1 40.1 11.4 4 22.9 7.6 34.4 10.9 217.9 62.3 453 3.7 613.3-152.8 118.1-115.2 183.6-269.1 184.5-433.3 0.9-165.6-63.8-321.8-182.1-439.9-46.3-46-98.7-84.3-156-113.8-6.1-3.3-12.6-6.5-19.8-9.9-17.8-8.4-36.2-16.1-54.6-22.8-42.3-15.3-86.4-26.2-131.3-32.2-28.4-3.9-57.2-5.8-85.9-5.8-16.1 0-32.3 0.6-48.3 1.8z"/>
								</g>
								<g id="&lt;Group&gt;">
									<path id="&lt;Compound Path&gt;" fill-rule="evenodd" class="s0" d="m1871.9 1636c-11.9-3.4-24-7.2-35.8-11.3-32.9-11.5-64.9-25.6-95.1-41.9-25.9-13.9-50.9-29.6-74.2-46.5-27.9-20.2-54.5-42.9-79.1-67.4-9-9.1-16.8-17.3-23.9-25.2-15.4-17.1-30.2-35.4-44-54.3-64.9-89.4-105.8-194.5-118.3-303.9-22.5-197.4 46.3-390.4 188.8-529.3 82.3-80.4 184.9-137.6 296.7-165.5 21.2-5.3 43.4-9.7 65.9-13 14.5-2 29.4-3.7 44.4-4.8 46.6-3.6 93.7-2.2 140.1 4.1 46.8 6.4 92.9 17.7 137 33.7 19.2 7 38.4 15 56.9 23.8 7.6 3.5 14.4 6.9 20.9 10.3 59.7 30.8 114.4 70.8 162.7 118.8 123.7 123.4 191.2 286.7 190.3 459.7-1 171.8-69.4 332.7-192.8 453.1-123.3 120.3-288.7 185.2-458.1 185.2-60.9 0-122.3-8.4-182.4-25.6zm127.8-1231.9c-14.3 1.1-28.6 2.7-42.3 4.7-21.5 3.1-42.6 7.2-62.8 12.3-106.4 26.6-204.1 81-282.4 157.5-135.5 132.2-200.9 315.6-179.5 503.3 11.8 104.1 50.7 204 112.5 289.1 13.1 18 27.2 35.4 41.9 51.8 6.8 7.5 14.2 15.3 22.8 23.9 23.4 23.4 48.7 44.9 75.3 64.2 22.2 16.1 46 31 70.6 44.3 28.8 15.5 59.3 29 90.6 39.9 11.3 3.9 22.8 7.5 34.1 10.8 216.8 61.9 450.5 3.7 610-151.9 117.3-114.6 182.4-267.5 183.3-430.8 1-164.7-63.4-320-181-437.4-46-45.8-98.1-83.8-155.1-113.2-6.1-3.2-12.6-6.4-19.7-9.8-17.7-8.3-36-16-54.3-22.6-42-15.3-86-26.1-130.6-32.1-28.2-3.9-56.8-5.8-85.4-5.8q-24.2 0-48 1.8z"/>
								</g>
								<g id="&lt;Group&gt;">
									<path id="&lt;Path&gt;" class="s0" d="m1456.1 1240.6c248.7 378.7 790 399.5 984-2 132-273.2-37.9-613-312.7-722.8-199.9-79.8-430.1-71.7-638.8 199.9 0 0-73.5 134.4-73.2 243.8 0.2 109.4 19.2 215.8 19.2 215.8z"/>
								</g>
								<g id="&lt;Group&gt;">
									<path id="&lt;Path&gt;" class="s7" d="m2440.1 1238.6c-194 401.4-735.4 380.6-984 2l-4.4-13.2c353.9 221.3 826.3 150.3 1030.1-252 11 88.2-1 178.9-41.7 263.2z"/>
								</g>
								<g id="&lt;Group&gt;">
									<path id="&lt;Compound Path&gt;" fill-rule="evenodd" class="s0" d="m1668.9 1537.5q-1.1-0.5-2.1-1.3c-27.9-20.1-54.5-42.8-79.1-67.4-9-9-16.8-17.2-23.8-25.1-15.5-17.1-30.3-35.4-44.1-54.3-64.9-89.4-105.8-194.5-118.2-303.9-22.5-197.4 46.3-390.3 188.7-529.3 82.3-80.4 184.9-137.6 296.8-165.5q1.5-0.3 3.1-0.4c84.1-3.3 173.2 13.6 264.9 50.2 165 65.9 303.3 207.8 370 379.7 60.1 154.7 56.4 315.9-10.3 454-72.6 150.3-190.5 256.6-340.8 307.3-62.3 21-128.3 31.4-195.2 31.4-104.6 0-211.5-25.5-309.9-75.4zm224.2-1116c-105.9 26.7-203 80.9-281 157.1-135.4 132.1-200.8 315.6-179.4 503.3 11.8 104.1 50.7 204.1 112.5 289.1 13 18 27.2 35.4 41.9 51.8 6.8 7.5 14.2 15.3 22.8 24 23.1 23 48.1 44.3 74.3 63.4 153.5 77.5 328.3 92.8 479.8 41.6 142.2-47.9 253.8-148.7 322.7-291.2 62.9-130.2 66.2-282.6 9.3-429.1-63.7-163.9-195.4-299.2-352.5-362-80.4-32.1-158.5-48.3-232.4-48.3q-9.1 0-18 0.3z"/>
								</g>
								<g id="&lt;Group&gt;">
									<path id="&lt;Compound Path&gt;" fill-rule="evenodd" class="s0" d="m1447.7 1246.1q-0.7-1.1-1.1-2.4l-21.5-65.2q-0.2-0.7-0.4-1.4c-0.1-1.1-19.1-108.6-19.3-217.6-0.3-110.7 71.4-243 74.4-248.6q0.4-0.7 0.9-1.3c180.6-235 399.4-303.3 650.4-203.1 145.8 58.3 268.1 183.7 327 335.6 53.1 136.6 49.9 279-9 400.8-85.4 176.8-244.7 285.5-436.9 298.1q-18.7 1.2-37.4 1.2c-206.2 0-405.5-111-527.1-296.1zm49.3-524.9c-5.5 10.2-71.9 136.6-71.6 238.3 0.2 102.7 17.3 204.1 18.9 213.4l20.9 63.3c125 189.6 334 298.7 545.7 284.8 184.8-12.1 338-116.6 420.2-286.8 56.4-116.8 59.4-253.5 8.4-384.9-57-146.8-175.1-268-315.8-324.2-71.8-28.7-140.9-43-207.2-43-156.4 0-297 79.9-419.5 239.1zm-40.9 519.4h-0.1z"/>
								</g>
								<g id="&lt;Group&gt;">
									<path id="&lt;Path&gt;" class="s4" d="m2713 1319.1c-40 117.6-144 192.4-232.3 167.2-88.3-25.2-127.5-141-87.5-258.5 0.2-0.8 0.5-1.5 0.8-2.3 40.5-116.2 143.8-190 231.5-164.9 68.2 19.5 107.1 93 102.9 179.6-1.3 25.5-6.3 52.2-15.4 78.9z"/>
								</g>
								<g id="&lt;Group&gt;" style="opacity: .3">
									<path id="&lt;Path&gt;" class="s0" d="m2713 1319.1c-40 117.6-144 192.4-232.3 167.2-88.3-25.2-127.5-141-87.5-258.5 0.2-0.8 0.5-1.5 0.8-2.3 5.6 14.9 16.7 31.1 38.5 32.9 38.2 3.2 128.3-54 128.3-54 0 0 72.8 15.1 167.6 35.8-1.3 25.5-6.3 52.2-15.4 78.9z"/>
								</g>
								<g id="&lt;Group&gt;">
									<path id="&lt;Compound Path&gt;" fill-rule="evenodd" class="s0" d="m2476.4 1501.4c-38.7-11.1-70-37.6-90.4-76.6-29.4-56.2-32.2-129.8-7.7-202.1 42.6-125.1 155.4-204.6 251.5-177.2 38.7 11.1 70 37.5 90.4 76.6 29.4 56.1 32.2 129.8 7.7 202.1-36.9 108.4-126.6 182.6-212.4 182.6-13.2 0-26.3-1.8-39.1-5.4zm-68.4-268.6c-21.5 63.2-19.3 129.6 5.7 177.5 16.4 31.2 41 52.3 71.3 60.9 10.2 3 20.7 4.4 31.3 4.4 72.4-0.1 149.4-65.9 181.9-161.5 21.5-63.3 19.3-129.6-5.7-177.5-16.4-31.2-41-52.3-71.3-60.9-10.2-3-20.7-4.4-31.3-4.4-72.4 0-149.4 65.9-181.9 161.5z"/>
								</g>
								<g id="&lt;Group&gt;">
									<path id="&lt;Path&gt;" class="s4" d="m2694.5 1408.4c-58.5 77.3-149.2 95.2-202.6 39.9-53.5-55.4-49.4-162.9 9.1-240.2 58.4-77.3 149.2-95.2 202.6-39.9 53.5 55.3 49.4 162.9-9.1 240.2z"/>
									<path id="&lt;Compound Path&gt;" fill-rule="evenodd" class="s0" d="m2490.7 1449.4c-53.9-55.8-49.9-164.5 9-242.3 32.8-43.4 76.8-69.8 120.8-72.4 32.8-2 61.9 9.2 84.3 32.4 53.9 55.8 49.9 164.4-9 242.3-32.8 43.3-76.8 69.7-120.8 72.4q-3.7 0.2-7.4 0.2c-29.7 0-56.2-11.2-76.9-32.6zm211.7-280c-21.7-22.5-49.9-33.4-81.7-31.5-43 2.6-86.2 28.6-118.4 71.2-57.9 76.6-62.1 183.4-9.2 238 21.7 22.5 49.9 33.4 81.7 31.4 43-2.6 86.2-28.5 118.4-71.1 57.9-76.6 62.1-183.4 9.2-238z"/>
								</g>
								<g id="&lt;Group&gt;" style="opacity: .3">
									<path id="&lt;Path&gt;" class="s0" d="m2452.3 1339.2c2.7-33.7 14.7-66.8 33-95.6 0.6 77.5 55 127.3 127.1 113.1 46.6-9.3 89.9-43.2 118.1-87.7 0.1 4.9-0.1 10-0.5 15.1-6.7 85.9-74.4 167.9-151.1 183.1-76.6 15.2-133.3-42.1-126.6-128z"/>
								</g>
								<g id="&lt;Group&gt;">
									<path id="&lt;Compound Path&gt;" fill-rule="evenodd" class="s0" d="m2536 1492.5c-28.8-8-52.2-27.7-67.6-57-23.8-45.3-25.4-108.9-4.3-170.1 35.5-103.2 125.1-170.4 199.7-149.8 28.8 8 52.2 27.7 67.6 57 23.8 45.3 25.5 108.9 4.4 170.1-31.3 90.7-104.1 153.5-171.9 153.5-9.5 0-18.8-1.2-27.9-3.7zm167.7-305.3c-11.3-21.4-28-35.7-48.3-41.4-58.9-16.3-131.4 41.9-161.7 129.8-18.3 53.2-17.4 107.5 2.5 145.3 11.2 21.4 27.9 35.7 48.2 41.4 58.9 16.3 131.5-41.9 161.7-129.8 18.4-53.2 17.4-107.5-2.4-145.3z"/>
								</g>
								<g id="&lt;Group&gt;" style="opacity: .5">
									<path id="&lt;Path&gt;" class="s4" d="m2231.9 690.3c0 0-268.3-88.1-472.4 2.7q-0.3 0.1-0.6 0.3c-43 19.1-79.8 49.4-106.9 87.4-35.9 50.3-53.1 90.1-66.9 125.8-41.9 108.4-40.9 167.1-40.9 167.1-40.5-81.2-50.7-159.7-16.7-250.4q5-13.4 11.4-27.2 1.4-3.1 3-6.3-0.1 0 0-0.1c9.9-18 23.8-41.2 41.7-66.1 53.8-75.1 143.8-165.5 269.5-175.6 234.9-18.8 392.2 134.5 378.8 142.4z"/>
								</g>
								<g id="&lt;Group&gt;" style="opacity: .5">
									<path id="&lt;Path&gt;" class="s4" d="m2237.5 1016.7c-5.6 53.8 27.9 101.5 74.7 106.5 46.9 5 89.4-34.6 95-88.5 5.6-53.8-27.9-101.5-74.8-106.5-46.8-5-89.4 34.6-94.9 88.5z"/>
								</g>
								<g id="&lt;Group&gt;" style="opacity: .5">
									<path id="&lt;Path&gt;" class="s4" d="m2268.8 1202.1c-0.4 22.4 15 40.8 34.5 41.3 19.4 0.4 35.5-17.4 35.9-39.7 0.4-22.4-15.1-40.9-34.5-41.3-19.5-0.4-35.6 17.3-35.9 39.7z"/>
								</g>
							</g>
						</g>
					</g>
				</g>
				<g id="&lt;Group&gt;">
					<path id="&lt;Path&gt;" class="s8" d=""/>
				</g>
				<g id="&lt;Group&gt;">
					<path id="&lt;Path&gt;" class="s8" d=""/>
				</g>
			</g>
		</g>
	</g>
</svg>